<svg width="700" height="797" viewBox="0 0 700 797" fill="none" xmlns="http://www.w3.org/2000/svg">
<path d="M0 552.825V252.775C0 219.043 17.7044 187.785 46.6355 170.44L307.146 14.2496C338.107 -4.31283 376.863 -3.93786 407.459 15.2201L654.948 170.19C682.978 187.741 700 218.484 700 251.555V554.029C700 587.975 682.073 619.397 652.851 636.671L405.407 782.94C375.832 800.423 339.169 800.768 309.269 783.845L48.7132 636.371C18.6095 619.333 0 587.417 0 552.825Z" fill="white"/>
<path d="M371.337 140.133C373.363 287.537 374.826 565.699 371.446 655.211C370.873 670.393 380.712 684.458 395.896 683.946C405.824 683.611 415.031 682.33 418.4 680.799C432.418 674.427 445.252 662.473 456.093 650.999C461.259 645.532 464 638.236 464 630.715V378.532C464 375.528 467.764 374.18 469.672 376.5L488.394 399.279C500.595 414.123 523.335 414.066 535.461 399.161L544.717 387.784C546.618 385.447 550.4 386.791 550.4 389.803V587.586C550.4 594.106 557.78 597.888 563.072 594.079L623.356 550.697C631.294 544.985 636 535.802 636 526.022V266.399V246.881C636 220.161 604.004 206.439 584.646 224.857L523.807 282.738C522.287 284.184 519.81 283.801 518.798 281.962L430.685 121.87C419.845 102.174 392.116 100.652 379.184 119.043L376.871 122.333C373.185 127.576 371.249 133.725 371.337 140.133Z" fill="url(#paint0_linear_0_1)"/>
<path d="M309.601 316.799H277.365C262.915 316.799 251.201 305.085 251.201 290.634C251.201 270.922 230.229 258.29 212.804 267.505L184.189 282.638C174.23 287.905 168.001 298.246 168.001 309.512V326.399C168.001 343.189 181.611 356.799 198.401 356.799H309.601C326.39 356.799 340.001 370.41 340.001 387.199V650.091C340.001 661.978 333.073 672.774 322.267 677.727L316.988 680.147C307.421 684.531 296.267 683.657 287.502 677.834L98.381 552.219C89.8989 546.585 84.8008 537.079 84.8008 526.896V506.399C84.8008 489.61 98.4113 475.999 115.201 475.999H149.17C159.57 475.999 168.001 484.43 168.001 494.829C168.001 502.338 172.462 509.129 179.353 512.111L246.73 541.265C248.843 542.179 251.201 540.63 251.201 538.328V460.799C251.201 444.01 237.59 430.399 220.801 430.399H115.201C98.4113 430.399 84.8008 416.789 84.8008 399.999V263.756C84.8008 253.434 90.0383 243.817 98.7094 238.218L287.597 116.242C296.32 110.609 307.315 109.818 316.755 114.145L322.267 116.671C333.073 121.624 340.001 132.42 340.001 144.307V286.399C340.001 303.189 326.39 316.799 309.601 316.799Z" fill="url(#paint1_linear_0_1)"/>
<defs>
<linearGradient id="paint0_linear_0_1" x1="502.8" y1="79.1991" x2="502.8" y2="684.031" gradientUnits="userSpaceOnUse">
<stop stop-color="#FF56F6"/>
<stop offset="1" stop-color="#44A4E3"/>
</linearGradient>
<linearGradient id="paint1_linear_0_1" x1="212.401" y1="107.199" x2="212.401" y2="687.199" gradientUnits="userSpaceOnUse">
<stop stop-color="#FF56F6"/>
<stop offset="1" stop-color="#44A4E3"/>
</linearGradient>
</defs>
</svg>
