<svg width="874" height="995" viewBox="0 0 874 995" fill="none" xmlns="http://www.w3.org/2000/svg">
<path d="M0 690.219V315.585C0 273.468 22.1052 234.44 58.2277 212.783L383.494 17.7688C422.151 -5.40773 470.541 -4.93959 508.742 18.9805L817.75 212.472C852.747 234.385 874 272.77 874 314.062V691.723C874 734.106 851.617 773.339 815.131 794.906L506.18 977.534C469.253 999.362 423.476 999.793 386.145 978.664L60.822 794.532C23.2353 773.258 0 733.409 0 690.219Z" fill="white"/>
<path d="M463.642 174.944C466.171 358.987 467.998 706.293 463.778 818.056C463.063 837.01 475.347 854.572 494.305 853.932C506.701 853.514 518.197 851.915 522.403 850.003C539.906 842.048 555.93 827.122 569.466 812.796C575.915 805.97 579.338 796.86 579.338 787.469V472.602C579.338 468.851 584.038 467.167 586.42 470.065L609.796 498.506C625.029 517.039 653.422 516.968 668.562 498.358L680.12 484.153C682.493 481.236 687.214 482.914 687.214 486.674V733.62C687.214 741.761 696.43 746.483 703.037 741.728L778.306 687.562C788.217 680.43 794.092 668.965 794.092 656.754V332.595V308.226C794.092 274.865 754.143 257.731 729.973 280.727L654.012 352.995C652.114 354.801 649.021 354.322 647.757 352.027L537.742 152.141C524.207 127.549 489.585 125.648 473.44 148.611L470.552 152.718C465.949 159.265 463.532 166.942 463.642 174.944Z" fill="url(#paint0_linear_0_1)"/>
<path d="M386.558 395.523H346.31C328.267 395.523 313.641 380.897 313.641 362.855C313.641 338.243 287.457 322.47 265.7 333.976L229.972 352.871C217.538 359.447 209.76 372.359 209.76 386.424V407.51C209.76 428.473 226.754 445.466 247.717 445.466H386.558C407.521 445.466 424.514 462.46 424.514 483.423V811.663C424.514 826.504 415.864 839.984 402.373 846.168L395.781 849.189C383.836 854.664 369.91 853.571 358.965 846.302L122.835 689.462C112.244 682.428 105.879 670.558 105.879 657.845V632.253C105.879 611.29 122.873 594.296 143.835 594.296H186.249C199.234 594.296 209.76 604.822 209.76 617.807C209.76 627.182 215.33 635.662 223.935 639.385L308.059 675.785C310.697 676.926 313.641 674.992 313.641 672.118V575.318C313.641 554.355 296.647 537.361 275.685 537.361H143.835C122.873 537.361 105.879 520.367 105.879 499.405V329.295C105.879 316.407 112.418 304.4 123.245 297.409L359.084 145.114C369.976 138.08 383.704 137.093 395.49 142.495L402.373 145.649C415.864 151.833 424.514 165.313 424.514 180.154V357.567C424.514 378.53 407.521 395.523 386.558 395.523Z" fill="url(#paint1_linear_0_1)"/>
<defs>
<linearGradient id="paint0_linear_0_1" x1="627.782" y1="98.8629" x2="627.782" y2="854.039" gradientUnits="userSpaceOnUse">
<stop stop-color="#FF56F6"/>
<stop offset="1" stop-color="#44A4E3"/>
</linearGradient>
<linearGradient id="paint1_linear_0_1" x1="265.197" y1="133.823" x2="265.197" y2="857.994" gradientUnits="userSpaceOnUse">
<stop stop-color="#FF56F6"/>
<stop offset="1" stop-color="#44A4E3"/>
</linearGradient>
</defs>
</svg>
